<?xml version="1.0" encoding="utf-8"?>
<!-- Generator: Adobe Illustrator 16.0.0, SVG Export Plug-In . SVG Version: 6.00 Build 0)  -->
<!DOCTYPE svg PUBLIC "-//W3C//DTD SVG 1.1//EN" "http://www.w3.org/Graphics/SVG/1.1/DTD/svg11.dtd">
<svg version="1.1" id="圖層_1" xmlns="http://www.w3.org/2000/svg" xmlns:xlink="http://www.w3.org/1999/xlink" x="0px" y="0px"
	 width="328.5px" height="80px" viewBox="0 0 328.5 80" enable-background="new 0 0 328.5 80" xml:space="preserve">
<g>
	<g>
		<path fill="#230B00" d="M55.824,59.655c-0.442,0.153-0.255-0.441-0.695-0.221c-0.504-0.379-1.23-0.221-1.735-0.599
			c0.032-0.252-0.032-0.535,0.253-0.661c0.033-1.294-0.093-2.903,0.096-4.26c0.313,0.126,0.222-0.156,0.253-0.345
			c-0.824-0.818,0.094-2.146-0.349-3.217c-0.093-0.062-0.158-0.157-0.253-0.22c0.063-0.254-0.092-0.604,0.125-0.79
			c0.634,0.283,0.601-0.438,0.57-0.818c-0.918-0.378-0.632-1.451-0.696-2.304c0.789-0.378,0.538-1.006,0.602-1.699
			c-0.156,0-0.284,0.028-0.349-0.127c0.252-1.421-0.505-2.463-0.253-3.879c0.22-0.159,0.286-0.348,0.253-0.6
			c-0.852-1.074-0.314-2.301-0.475-3.656c0.254-0.319,0.415-0.697,0.475-1.043c0.065-0.124,0.193-0.093,0.349-0.093
			c-0.126-0.664,0.284-1.609-0.349-1.955c0.096-0.663-0.285-1.735,0.349-1.958c0.094-1.195-0.315-2.583,0.313-3.562
			c-0.062-0.38,0.22-0.881-0.219-1.136c0.344-1.448-0.884-1.955-0.443-3.434c1.009-0.697-0.061-1.987,0.443-2.994
			c0.219-0.314,0.439-1.043,1.04-0.79c0.82-0.064,0.728-0.725,1.04-1.262c0-1.167-1.45-0.884-0.914-2.302
			c-0.376-0.284,0.034-1.072-0.6-1.04c-0.222-0.285-0.691-0.505-0.66-0.917c-0.663,0.347-0.727-0.785-1.384-0.439
			c-0.319-0.597-0.916,0.222-1.142-0.219c0-0.095,0-0.16,0-0.253c-1.227-0.602-1.416,1.258-2.518,0.912
			c0.47,1.486-1.614,0.697-1.389,2.084c-0.787-0.504-1.987,0.03-2.743-0.472c-1.072,0.344-2.272-0.728-2.995,0.472
			c-0.792-0.19-0.761,0.818-1.607,0.441c-0.636-0.412-1.517-0.159-2.304-0.222c-0.127-0.284-0.411-0.22-0.662-0.22
			c-0.629,0.346-1.674,0.346-2.303,0c-1.01,0.377-1.924,0.251-2.993,0.093c-1.39-0.126-2.775-0.251-4.006,0.126
			c-1.041-0.063-2.05-0.853-3.089-0.22c-1.296,0-2.146,0-3.435,0c-0.1-0.097-0.161-0.158-0.225-0.223
			c-1.702,0.065-3.528-0.189-5.046,0.223c-1.576-1.042-2.586,1.04-4.036,0c-0.756-0.097-0.66-1.577-1.605-1.167
			c-0.504-0.285-1.073-0.252-1.263-0.917c-0.661-0.25-0.916,0.507-1.575,0.255c-0.125,0.755-1.23,0.728-0.822,1.83
			c-0.125,0.377-0.722,0.756-1.038,0.912c-0.191,0.063-0.317-0.094-0.442-0.221c-0.41,0.096-1.356-0.284-1.261,0.348
			c-0.379,0.378-0.252,1.45-0.127,1.923c0,2.43,2.743,1.04,3.911,2.078c0.061,0.79-0.064,1.517-0.347,2.179
			c-0.064,1.419,0.062,2.74,0.347,4.003c-0.03,0.413-0.379,0.472-0.568,0.693c-0.317,1.135,0.062,2.305,0.094,3.436
			c-0.283,0.256,0.127,0.979-0.349,1.262c0.096,0.314-0.188,0.758,0.254,0.917c0,1.796,0,3.905,0,5.862
			c0.376,0.54,0.221,1.451,0.094,2.05c0,0.378-0.537,0.729-0.349,1.259c-0.661,1.139,0.349,2.148,0,3.441
			c0.476,0.505,0.128,1.261,0,1.828c0.506,0.408-0.029,1.227,0.476,1.605c0.062,2.555-0.159,4.701,0,7.129
			c-0.696,0.755,0.347,1.385,0,2.27c-0.664,0.378-1.325,0.725-2.176,0.599c-0.57,0.474-1.701,0.726-1.261,1.922
			c0.407,0.759,0.031,1.927,0.791,2.43c0.154,0.062,0.125,0.22,0.125,0.347c0.252,0.346,0.691,0.725,1.26,0.566
			c0.659,0.789,2.081,0.41,2.867,0.348c0.062-0.222,0.284-0.095,0.443-0.125c0.378-0.032,0.188,0.378,0.25,0.566
			c0.254,0.69,0.348,1.137,0.793,1.735c0.913,0.187,1.258-0.44,1.732-1.045c0.064-0.439-0.126-0.785-0.255-1.132
			c0.194-0.125,0.284-0.475,0.601-0.348c0.251,0.379,1.008,0.253,1.262,0.097c0.062-0.125,0.189-0.097,0.316-0.097
			c0.312,0.41,0.944,0.158,1.384,0.223c0.535,0.817,1.609,0.314,2.396,0.472c0.285-0.882,1.706-0.22,2.306-0.598
			c0.755-0.856,1.639,0.347,2.428-0.224c0.221-0.283,0.723,0.127,0.912-0.345c1.104,0.694,1.89-0.538,2.869-0.79
			c2.082,0.064,3.438-0.564,5.612-0.347c0.949,0.884,2.144,0.22,3.315,0.569c0.188,0.279,0.82-0.125,1.039,0.346
			c0.254,0,0.533,0.062,0.694-0.22c1.164-0.031,2.522,0.097,3.53-0.126c0.067-0.031,0.098-0.063,0.128-0.125
			c0.251,0.03,0.535-0.033,0.692,0.251c0.378-0.097,0.916,0.188,1.135-0.251c1.105,0,2.237,0,3.343,0
			c0.569-0.063,1.071-0.252,1.61-0.444c1.042-0.091,1.574,0.664,2.615,0.22c0.127,0.538,0.127,0.882,0.127,1.485
			c0.251,0.66,0.346,1.383,0.79,1.954c0.475,0,0.911,0,1.39,0c1.542-0.756,0.341-2.649,1.036-3.785
			c0.443-0.818,1.104-0.126,1.827-0.346c0.315-0.095,0.825-0.22,0.792-0.666C57.02,61.199,55.885,60.444,55.824,59.655z"/>
		<path fill="#DBD7C4" d="M23.942,18.823c1.293,0.439,2.903,0.156,4.354,0.251c0.377,0.222,0.63,0.444,0.912,0.662
			c1.707-0.567,2.969,0.188,4.606-0.218c0.159,0.5,0.725-0.033,0.915,0.471c0.79-1.01,2.522,0.062,3.185-0.915
			c1.264,0.346,1.889-0.692,2.996,0c0.317-0.443,0.916-0.159,1.384-0.251c0.57,0.63,2.114-0.314,2.177,0.818
			c0.631,0.411,0.223,1.452,0.35,2.178c-0.413-0.16-0.221,0.377-0.598,0.344c-0.98,0.033-1.643,0.758-2.62,0.791
			c-0.851-0.727-1.799,0-2.648-0.444c-0.158-0.439-0.821-0.154-1.262-0.252c-0.189,0.631-0.975,0.285-1.353,0.696
			c-0.475,0.156-1.421-0.378-1.39,0.473c-0.63,0.097-1.611,0.252-2.047-0.473c-0.252,0.44-0.791,0.156-1.167,0.253
			c-0.475-0.346-0.791-0.286-1.266-0.602c-0.346-0.156-0.346,0.413-0.786,0.349c-0.567,0.851-1.577,1.041-1.956,1.733
			c-0.979,0.569-0.979,1.546-0.912,2.524c0.124,0.408,0.597,0.882,0.912,1.042c0.946,0,1.642,0.85,2.396,1.008
			c0.917,0,0.599,0.82,1.167,1.261c0.569,0.441,0.697,1.007,1.479,1.164c0.444,0.884,0.854,1.86,1.958,2.397
			c0.79-0.472,1.04,0.378,1.829,0.347c0,0.41,0.378,0.443,0.566,0.695c0.127,0,0.222,0,0.348,0c0.22,0.883,0.125,1.985-0.348,2.617
			c0.285,0.884-0.913,0.631-0.913,1.261c-0.285-0.064-0.505,0.125-0.57,0.347c0.161,0.379-0.283,0.188-0.347,0.472
			c0.035,0.377-0.123,0.883,0.224,1.357c-0.16,0.062-0.315,0.095-0.447,0.125c-0.911,0.092-0.691-1.105-1.734-0.69
			c-0.594-0.223-1.227-0.444-1.826-0.696c-0.536-0.064-1.227,0.19-1.606-0.224c-0.536,0.068-0.945-0.216-1.389-0.439
			c-0.948,0.223-1.262-0.411-2.177-0.348c-0.851-0.029-1.605-0.378-2.397-0.567c-1.197,0.062-2.049-0.157-3.217,0
			c-0.532,0.82-1.954,1.354-2.046,2.274c-0.286,0.722-1.291,1.287-1.389,2.171c-1.196,0.791-1.828,2.114-2.523,3.121
			c-0.377,0.509-0.568,1.106-0.786,1.704c-0.192,1.357-1.832,2.304-2.209,3.658c-0.062,0-0.125,0-0.219,0
			c-0.603-0.693,0.093-1.797-0.789-2.271c0-1.702,0-3.374,0-5.045c-0.504-0.566,0.032-1.512-0.472-2.08
			c0.094-0.536-0.191-1.199,0.22-1.607c0.438-1.292,0.158-2.9,0.252-4.354c0.441-0.882,0.062-2.145,0.348-3.087
			c0.158-0.315,0.158-0.851,0-1.137c-0.097-0.916-0.381-2.458,0.219-3.216c-0.126-1.102,0.756-2.079,0.126-3.089
			c0-1.387,0-2.776,0-4.128c0.154-0.632,0.534-0.728,0.915-1.167c0.376-0.35,1.133-0.379,1.702-0.568
			c0.125-0.444,0.598-0.065,0.82-0.349c0.916-0.282,2.11-0.912,3.309-0.346c0.979,0.284,1.544-0.473,2.521-0.221
			c0.062-0.064,0.159-0.128,0.127-0.22C21.863,18.538,23.188,18.003,23.942,18.823z"/>
		<path fill="#DBD7C4" d="M21.989,42.91c-0.189,0.665,0.284,0.854,0.695,1.136c1.131,0.788,1.196,2.397,2.519,2.995
			c0.696,0.443,1.234,0.915,1.831,1.359c-0.188,0.566,0.25,0.818,0.568,1.168c0.38-0.065,0.854,0,0.82,0.436
			c-0.032,0.13,0.033,0.192,0.095,0.255c0.251,0.221,1.009,0.032,1.04,0.563c0.852,0.665,1.641,0.984,2.745,1.487
			c0.533-0.189,0.818,0.283,1.166,0.565c-0.096,0.314,0.253,0.507,0.442,0.568c1.072-0.095,1.798,0.095,2.431,0.82
			c0.785-0.064,2.139-0.471,2.615,0.343c0.947,0.162,1.574,0.635,2.521,0.444c1.136,0.474,2.809-0.097,3.092,1.389
			c0.442-0.127,0.155,0.476,0.254,0.694c-0.57-0.157-0.192,0.503-0.476,0.689c-0.596,0.54-1.166,1.075-1.039,1.926
			c-0.283,0.379-0.377,0.79-0.347,1.261c-0.317-0.062-0.441,0.316-0.666,0.475c-0.532-0.062-1.229,0.187-1.607-0.22
			c-0.379,0-1.354,0.062-0.819-0.569c0.693-0.379,0.597-1.104,0.914-1.608c-0.409-0.503-0.979-0.756-1.604-0.472
			c-0.728,0.411-0.348,1.418-1.357,1.608c0.125,1.892-2.209,0.693-3.346,1.041c-0.536-0.507-1.515,0.03-2.047-0.478
			c-0.504,0.13-1.103-0.248-1.388,0c-1.733,0-3.5,0-5.265,0c-0.757,0.447-1.833,0.16-2.743,0.223
			c-0.287-0.442-1.01-0.028-1.262-0.314c-0.854,0-1.706-0.567-2.431-0.128c-0.252,0-0.534,0.066-0.66-0.22
			c-0.537-0.094-1.233,0.191-1.613-0.251c-0.406-0.063-1.193,0.251-1.164-0.441c-0.378-0.188-0.44-0.505-0.44-0.914
			c0.788,0.157,1.701,0.188,2.395,0.346c0.632,0.095,1.607,0.348,2.08-0.251c0.126-0.535-0.189-0.914-0.598-1.261
			c-1.387-0.064-2.363-1.136-3.529-1.703c0-0.379-0.097-0.821,0.343-1.041c0.949-0.225,1.167,0.693,2.05,0.693
			c0.223,0.379,0.693,0.476,0.913,0.567c0.693-0.126,1.266,0.823,1.736-0.22c0.191-0.664-0.251-0.79-0.691-1.041
			c-0.851-0.153-1.39-1.261-2.084-1.608c0.1-0.412-0.533-0.913,0-1.135c0.567,0.252,1.327,0.44,1.514,1.135
			c0.379,0,0.603,0.315,1.01,0.348c0.503,0.471,0.787,1.261,1.733,1.036c0.16,0.29,0.444,0.225,0.697,0.225
			c0.125-0.252,0.816-0.507,0.564-1.038c-0.126-1.041-1.733,0.028-1.826-1.138c-0.382-0.476-1.011-0.821-1.169-1.388
			c-0.472-0.378-0.884-0.568-1.355-1.134c0.189-0.507-0.319-0.538-0.475-0.79c-0.063-0.061-0.315,0.094-0.22-0.125
			c-0.599-0.062-1.135-0.283-1.608-0.693c0-0.159,0-0.316,0-0.442c0.503-0.758,0.852-1.669,1.387-2.299
			c0.916-0.191,0.031-1.611,1.009-1.738c0.506-0.441,0.443-1.136,0.948-1.606C20.916,42.439,21.643,42.439,21.989,42.91z"/>
		<path fill="#49340A" d="M22.556,22.954c0.567,0.096,0.347,1.074,0.254,1.514c-0.349,0.316-0.789,1.42-1.611,1.008
			c-0.474-0.316-1.198-0.219-1.039-1.008c0.534-0.411,0.818-0.979,0.691-1.607C21.2,22.383,22.495,22.227,22.556,22.954z"/>
		<path fill="#867451" d="M23.032,27.083c0.628,0.221,0.628,1.513,1.606,1.387c1.072,0.568,0.946,1.925,1.829,2.3
			c0.157,0.412,0.597,0.127,0.915,0.222c0.316-0.471,0.884-0.756,1.387-0.471c0.601,0.284,1.041,0.375,1.484,0.818
			c0.062,0.38,0.314,0.944-0.128,1.261c-0.883-0.094-0.127,1.01-0.69,1.137c-0.287,0.472-0.347,1.069-1.011,1.134
			c-0.095,0.852,0.284,2.364-0.694,2.775c-0.473,0.221-1.261,0.095-1.388-0.351c-0.188-0.629-0.975-1.006-0.693-1.826
			c0.505-0.064,0.567-0.41,0.945-0.692c-0.221-0.538-0.567-1.014-1.262-0.822c-0.346-0.033-0.723-0.192-1.037-0.441
			c-0.477-1.009,0.061-2.429-0.917-3.215c0.38-1.609-2.617-1.924-1.732-3.661C22.179,26.61,22.811,26.578,23.032,27.083z"/>
		<path fill="#DBD7C4" d="M26.689,41.526c1.164-0.033,2.333-0.065,3.216,0.913c1.135,0.032,2.083,0.535,2.996,1.165
			c1.544-0.029,1.764,1.769,3.178,2.052c0.606,0.249,0.919,0.473,1.517,0.693c0.728-0.128,0.759,1.101,1.704,0.691
			c0.851,0.603,1.671,1.359,2.744,1.359c0.884,0.439,1.134,1.037,1.954,1.261c0.156,0.66,0.663,1.161,0.472,1.952
			c-0.722-0.41-1.511,0.885-1.733-0.219c-1.416,0.189-2.585-0.285-3.878-0.475c-0.851-0.661-2.365-0.474-3.121-1.352
			c-0.219,0.027-0.407-0.039-0.565-0.225c-1.453,0.569-1.706-1.041-2.969-0.943c-0.469-0.317-0.406-0.916-1.163-0.665
			c-1.103-0.41-1.833-0.976-2.395-1.951c-1.361-0.036-0.98-1.642-2.179-1.738c-0.47-1.01-1.893-0.692-1.829-2.048
			c-0.255-0.663,0.538-0.252,0.691-0.694C25.775,41.367,26.371,41.113,26.689,41.526z"/>
		<path fill="#8A7957" d="M11.772,51.268c1.04,0.506,0.758,1.261,0.821,2.081c0.284,0.348,0.566,0.379,0.44,0.915
			c-0.411,0.28-0.503,0.66-0.44,1.134c0.503,0.257-0.03,0.915,0.44,1.169c0,0.913-0.722,1.574-0.44,2.615
			c-0.538,0.316-0.659-0.315-0.914-0.692c0.188-0.822-0.347-1.355-0.221-2.177c-0.472-0.658-0.063-1.669-0.346-2.397
			c-0.188-0.345-0.188-1.229,0-1.605c0.093-0.349,0.188-0.726,0.441-1.042C11.646,51.268,11.709,51.268,11.772,51.268z"/>
		<path fill="#DBD7C4" d="M47.782,60.097c0.029,0.284-0.285,0.251-0.445,0.251c-0.439,0.097-0.562-0.314-0.817-0.471
			C46.553,58.615,47.75,59.404,47.782,60.097z"/>
		<path fill="#6F5B36" d="M50.487,51.867c-0.376,1.988,0.412,4.572-0.662,6.179c-0.629-0.063-0.664-0.884-1.387-0.693
			c-0.632-0.093-0.219-0.852-0.348-1.261c0.726-0.631,0.413-1.985,1.136-2.648c0.285-0.82-0.442-1.229-0.442-1.922
			c-0.788-0.477-0.756-1.293-1.384-1.86c0.596-1.39-0.945-0.694-1.263-1.705c-0.346,0.064-0.536-0.379-0.789-0.57
			c0.098-0.219-0.126-0.438-0.348-0.345c-0.411,0.159-0.346-0.281-0.567-0.344c-0.727-0.348-1.67-0.602-1.957-1.481
			c-0.377-0.096-0.817-0.566-1.388-0.475c-0.754-0.412-0.723-1.356-1.827-1.137c-0.093-0.314-0.535-0.123-0.567-0.346
			c-0.44-0.632-1.577-0.252-1.61-1.134c-0.405-0.225-1.135-0.032-1.135-0.695c0.157-0.062,0.286-0.095,0.445-0.126
			c0.532,0,1.006-0.851,1.48-0.913c0.474-0.884,2.554-0.064,2.079-1.613c-0.218-0.029-0.061-0.376-0.123-0.562
			c0.977-1.171-0.631-2.399,0.252-3.66c-0.16-0.945-1.166-1.482-1.262-2.429c-0.631-0.343-1.357-1.197-2.208-1.04
			c-0.852-0.882-2.838,0.441-3.185-1.134c-1.166-0.851-2.335-1.449-3.436-2.648c-0.474,0.191-0.63-0.379-0.914-0.566
			c0.219-0.632-0.507-0.598-0.255-1.263c0.54-0.536,1.169-0.823,1.958-0.692c0.154,0.504,0.759-0.034,0.914,0.473
			c1.514-0.697,2.331,1.383,3.34,0c0.854-0.317,2.05,0.187,2.621-0.789c0.63,0.158,1.355,0.062,1.826,0.566
			c1.105-0.915,2.239,0.787,3.124-0.25c0.852-0.158,1.608-0.599,2.27-1.26c-0.22-0.823,0.759-0.635,1.042-1.14
			c0.662,0.065,0.819-0.313,1.263-0.725c-0.633-0.472-0.191-1.669-0.224-2.239c0.944-0.062,1.956-0.754,2.616,0.316
			c-0.282,4.51,0.126,9.649-0.346,14.126c0.63,0.472,0.599,1.295,0.694,2.048c-0.759,1.168,0.536,2.306-0.221,3.439
			c0.033,0.188-0.096,0.472,0.126,0.567c0.251,0.755-0.034,1.922,0.222,2.774c0.063,0,0.159,0,0.219,0
			c-0.029,1.104,0.097,2.363-0.092,3.312c-0.127,0.125-0.318,0.25-0.254,0.473c0.913,0.909,0.126,2.742,0.692,3.877
			C50.584,50.857,50.708,51.521,50.487,51.867z"/>
		<path fill="#DBD7C4" d="M45.957,38.339c0.281,0.727,0.186,1.483-0.127,2.178c-0.35,0.438-1.045,0.757-1.01,1.354
			c-0.665,0-1.203,0.408-1.741,0.691c-0.12,0.38-0.722,0.6-1.035,1.042c-0.507,0.221-0.694-0.346-1.012-0.568
			c-0.282-1.104,1.261-1.479,1.358-2.423c0.441-1.044,2.429-0.571,1.954-2.274C44.692,37.395,45.512,38.088,45.957,38.339z"/>
	</g>
	<g>
		<path fill="#230B00" d="M92.732,21.065c0.305,8.093-0.956,16.968,1.107,24.271c2.854-0.629,3.928-4.257,6.319-6.156l-1.718-1.947
			c2.855-2.053,6.981-0.791,10.473-1.088c-2.387,1.888-7.938,3.639-9.191,8.084c3.795,4.273,5.856,10.138,11.4,12.696l-11.4,1.096
			c1.417-3.811-3.97-7.604-5.882-11.583c-2.063,2.064-0.803,5.389-1.107,8.087l2.22,2.4l-11.426,1.096
			c4.134-10.153,1.428-25.54,2.218-34.556C87.974,22.327,90.036,20.908,92.732,21.065z"/>
		<path fill="#230B00" d="M80.037,24.539h-2.376c-2.061,9.364-0.792,20.003-1.114,29.988l2.384,2.4H66.235l3.341-2.4
			c-0.636-9.984,3.136-21.342-1.139-29.906l-3.465-0.082C73.172,21.213,73.842,22.029,80.037,24.539z"/>
		<path fill="#230B00" d="M165.373,24.539c-0.305,1.593,0.965,3.819-1.106,4.62c-2.375,0.313-4.447-0.157-5.874-2.229
			C158.722,23.597,163.333,22.327,165.373,24.539z"/>
		<path fill="#230B00" d="M217.248,30.412c-3.806-3.794-10.939-8.085-17.267-4.734c-8.895,3.794-7.31,15.352-5.71,23.139
			c4.588,5.082,10.297,10.965,17.267,6.98l5.71-6.98c2.218,3.176-0.792,10.478-6.815,9.206c-7.31,0.144-14.601,0.306-19.676-4.602
			c-6.345-4.604-6.657-13.027-4.595-19.666c0.799-6.825,8.589-7.492,12.861-10.975l18.225,1.758V30.412z"/>
		<path fill="#230B00" d="M284.202,21.065c-4.941-0.158-9.855-0.322-12.697,4.612l-1.12-1.139c-0.461-5.692-6.807-2.51-10.454-3.473
			c-7.771,3.02-3.778,14.668-10.327,17.292c1.591-0.324,2.218,1.582,3.497,2.366c-0.784,5.403,1.914,12.228-2.375,16.203
			c0.825,0,8.969,0,10.477,0c-3.959-4.768-2.55-13.025-1.271-18.569c3.17,0.46,6.971-0.958,9.348,1.262
			c-0.8,6.03,1.914,13.644-2.377,18.403c3.483-2.068,9.826-0.799,12.689-1.096c-1.273-0.166-2.688,0.297-3.474-1.13
			c-0.653-5.873-4.612-19.975,5.86-18.562c-1.908-2.376-5.722,0.166-6.99-3.479c-0.641-4.449,0.636-8.401,3.496-11.429l4.605,4.604
			c1.261-0.166,2.69,0.323,3.487-1.253C287.213,23.597,285.472,22.484,284.202,21.065 M268.007,36.146l-8.076-1.132l1.271-11.548
			c2.68,0.462,3.323,6.945,8.076,4.587C269.444,31.064,267.226,32.953,268.007,36.146z"/>
		<path fill="#230B00" d="M165.373,36.146c0.801,6.962-1.897,15.204,2.393,20.781h-10.478c3.811-4.3,2.533-12.219,1.105-17.307
			l-1.105-1.262C159.992,37.714,162.054,35.181,165.373,36.146z"/>
		<path fill="#230B00" d="M245.016,41.837c-3.496-5.559-9.048-6.343-15.063-5.691c-5.247,3.316-9.537,6.65-8.086,13.778
			c1.42,7.465,9.357,9.205,16.162,8.099C245.016,55.483,245.65,48.504,245.016,41.837 M234.556,55.797
			c-6.353-2.211-4.777-11.255-3.332-16.177c5.072-4.438,5.7,4.115,6.805,6.82C238.516,50.245,237.558,53.421,234.556,55.797z"/>
		<path fill="#230B00" d="M301.494,44.23v-3.507c-2.071-7.111-12.697-5.542-16.188,0c-3.487,5.083-2.218,12.053,2.376,16.203
			c4.771,2.202,12.222,1.576,13.812-4.611c-2.382,0.312-3.826,3.315-6.832,2.211c-2.531-2.367-5.403-4.76-5.865-8.087
			C291.646,42.333,297.368,45.007,301.494,44.23 M293.391,38.358l2.378,2.366c-0.791,2.072-3.168,0.8-4.58,1.113L293.391,38.358z"/>
		<path fill="#230B00" d="M321.138,54.526c-3.788,0.636-6.809-0.471-9.174-3.49c-5.562-10.946,10.303-3.812,12.678-9.199
			c-2.375-10.294-15.541-5.081-18.57,0c-2.209,5.076-1.087,11.427,3.506,15.09c5.066,1.891,13.159,2.054,15.064-4.611
			C322.901,51.828,322.267,53.734,321.138,54.526 M315.277,38.358c1.106-0.324,1.764,0.625,2.402,1.262v2.217h-4.609
			C312.113,39.147,314.329,40.394,315.277,38.358z"/>
		<path fill="#230B00" d="M152.685,36.146c-2.375-0.324-4.431,0.298-5.717,2.212l-2.376-3.344
			c-14.742,0.627-0.149,15.231-8.084,21.913c-9.685-0.166-6.023-13.192-6.833-18.569c-1.723-4.135-6.168-1.427-9.338-2.212
			c-2.235,2.672-9.685,3.639-6.831,8.084c5.866,0.942,2.543-6.831,8.094-6.996l2.219,2.385c4.925,7.779-6.674,7.293-10.313,10.304
			c-2.687,2.703-0.32,6.211,2.22,8.099c10.163-2.068,23.965,1.759,32.356-1.096c-3.795-4.3-2.535-12.219-1.114-17.307l1.114,1.104
			c1.914,1.435,4.291,1.287,5.724-1.104C153.805,38.358,154.121,36.756,152.685,36.146 M122.712,54.526
			c-1.584,0.478-2.376-1.427-3.499-2.211c0-1.758,1.915-3.638,3.499-3.499V54.526z"/>
	</g>
</g>
</svg>
