<?xml version="1.0" encoding="utf-8"?>
<!-- Generator: Adobe Illustrator 16.0.0, SVG Export Plug-In . SVG Version: 6.00 Build 0)  -->
<!DOCTYPE svg PUBLIC "-//W3C//DTD SVG 1.1//EN" "http://www.w3.org/Graphics/SVG/1.1/DTD/svg11.dtd">
<svg version="1.1" id="圖層_1" xmlns="http://www.w3.org/2000/svg" xmlns:xlink="http://www.w3.org/1999/xlink" x="0px" y="0px"
	 width="485.646px" height="485.646px" viewBox="0 0 485.646 485.646" enable-background="new 0 0 485.646 485.646"
	 xml:space="preserve">
<g>
	<path fill="#278BC4" d="M475.073,358.948c0,64.129-51.993,116.125-116.125,116.125h-232.25
		c-64.132,0-116.125-51.996-116.125-116.125v-232.25c0-64.129,51.993-116.125,116.125-116.125h232.25
		c64.132,0,116.125,51.996,116.125,116.125V358.948z"/>
	<g>
		<path fill="#C91E1D" d="M95.376,317.359c8.209,44.705,48.939,108.61,79.084,97.558c17.699-6.493,17.699,12.978,41.508,12.228
			c14.116-0.446,16.139-4.038,24.21-9.083c37.408,28.286,104.264-39.575,135.286-107.088
			c58.517-127.365-71.405-178.889-129.402-144.091c-12.771-20.983-78.616-43.82-128.793-4.622c0,0,20.347,69.614-12.636,110.593
			C108.633,298.837,95.376,317.359,95.376,317.359"/>
		<path fill="#FFFFFF" d="M126.781,168.649c62.951,19.158,51.018,120.071-20.071,142.324c6.385-11.859,7.58-22.993,5.475-35.584
			C132.256,254.411,136.818,200.582,126.781,168.649"/>
		<path fill="#6BA945" d="M281.59,145.439c26.944,1.86,52.318,6.582,52.318,6.582l52.898,13.7c0,0-12.057-20.005-34.937-32.664
			C329.16,120.488,285.738,140.867,281.59,145.439"/>
		<path fill="#6BA945" d="M96.726,108.557c57.476,12.774,120.41,27.408,120.41,27.408l61.147-5.168c0,0-35.549-40.791-73.765-56.537
			C180.206,64.239,126.833,83.014,96.726,108.557"/>
		<polygon fill="#6BA945" points="288.871,58.481 313.2,80.295 252.796,205.304 244.404,201.948 		"/>
		<polygon fill="#FFFFFF" points="219.833,187.078 255.474,211.789 275.482,190.727 254.47,200.711 		"/>
	</g>
</g>
</svg>
